<!DOCTYPE svg PUBLIC "-//W3C//DTD SVG 1.1//EN" "http://www.w3.org/Graphics/SVG/1.1/DTD/svg11.dtd">
<!-- Uploaded to: SVG Repo, www.svgrepo.com, Transformed by: SVG Repo Mixer Tools -->
<svg fill="currentColor" height="214px" width="214px" version="1.1" id="Layer_1" xmlns="http://www.w3.org/2000/svg" xmlns:xlink="http://www.w3.org/1999/xlink" viewBox="-10.24 -10.24 532.48 532.48" xml:space="preserve" stroke="currentColor" stroke-width="14.847999999999999">
<g id="SVGRepo_bgCarrier" stroke-width="0"/>
<g id="SVGRepo_tracerCarrier" stroke-linecap="round" stroke-linejoin="round" stroke="currentColor" stroke-width="4.096"/>
<g id="SVGRepo_iconCarrier"> <g> <g> <path d="M511.179,334.806c-2.868-9.358-12.552-15.577-25.27-16.229c-16.002-0.822-88.578-15.219-110.156-20.571v-10.044 c0-82.088-66.786-148.872-148.876-148.872h-13.723c-5.728-7.733-14.915-12.75-25.277-12.75s-19.551,5.017-25.279,12.75h-13.724 C66.784,139.089,0,205.872,0,287.96v42.537c0,4.615,3.74,8.354,8.354,8.354h267.668c38.233,30.201,85.078,46.809,132.261,46.809 c36.406,0,70.47-9.944,93.457-27.281C510.216,351.99,513.744,343.178,511.179,334.806z M339.667,219.133 c9.862,16.101,16.369,34.466,18.555,54.119c-16.255-0.853-29.216-14.345-29.216-30.808 C329.006,233.329,332.969,224.912,339.667,219.133z M16.707,322.145v-11.491h22.42c4.613,0,8.354-3.739,8.354-8.354 c0-4.613-3.74-8.354-8.354-8.354h-22.42v-5.984c0-68.616,52.562-125.178,119.536-131.557 c-13.428,11.16-24.926,24.536-34.323,40.016c-19.946,32.853-30.551,75.128-31.598,125.724H16.707z M87.027,322.145 c1.022-47.461,10.816-86.815,29.174-117.055c12.63-20.804,29.459-37.37,50.023-49.293h38.7 c34.186,27.244,52.773,84.554,53.948,166.348H87.027z M275.576,322.146v-0.001c-0.701-50.556-7.805-92.447-21.154-124.602 c-6.83-16.452-15.321-30.399-25.343-41.718c40.777,0.671,77.116,19.894,100.931,49.585c-11.108,8.916-17.712,22.4-17.712,37.034 c0,25.952,20.898,47.102,46.748,47.539v8.096l-81.317,24.066H275.576z M491.682,345.041 c-20.15,15.198-50.547,23.914-83.398,23.914c-39.064,0-77.92-12.392-111.02-35.168l70.091-20.745 c19.057,5.347,101.285,21.377,117.699,22.221c6.507,0.334,9.679,2.9,10.151,4.44C495.611,341.025,494.228,343.121,491.682,345.041 z"/> </g> </g> </g>
</svg>