<svg xmlns="http://www.w3.org/2000/svg" xmlns:xlink="http://www.w3.org/1999/xlink" version="1.1" id="Layer_1" x="0px" y="0px" width="100%" viewBox="0 0 1024 1024" enable-background="new 0 0 1024 1024" xml:space="preserve">
<path fill="currentColor" opacity="1.000000" stroke="currentColor" stroke-width="20" stroke-linecap="round" stroke-linejoin="round" d=" M517.605591,711.579102   C532.833618,698.338379 547.860168,685.404175 562.705200,672.264893   C569.125183,666.582642 572.045532,659.444519 569.895508,650.749084   C566.045593,635.178589 549.745422,629.764954 537.624939,640.255615   C519.227295,656.179382 500.696045,671.948181 480.820740,686.000977   C462.871643,698.691833 444.517303,710.808105 426.416504,723.286255   C414.054962,731.807983 403.846710,742.205078 400.196716,757.333435   C397.333038,769.202637 397.251129,781.293518 397.788971,793.522034   C399.570343,834.024109 411.259155,872.717285 418.782745,912.166382   C422.176483,929.960876 424.889557,947.853333 427.197205,965.811523   C427.513397,968.272095 427.472229,970.820312 427.258606,973.298889   C426.716034,979.595032 420.669983,984.793945 414.188934,984.732910   C407.807190,984.672791 402.298798,980.093506 401.730133,973.991943   C398.544220,939.807739 391.459290,906.354248 383.481903,873.022888   C375.962463,841.605225 370.471283,809.863403 370.610168,777.361816   C370.694275,757.677673 375.221039,739.378296 386.815460,723.291504   C403.739990,699.809387 413.820038,673.318481 421.579224,645.775085   C438.623474,585.271484 451.877594,523.854065 465.648468,462.561401   C467.943298,452.347382 470.125366,442.082062 473.587280,432.186890   C480.174988,413.357269 498.162140,400.426361 518.126038,399.892029   C537.550293,399.372131 556.492859,411.248260 564.126709,428.750732   C568.934814,439.774475 568.065613,451.037048 565.995300,462.521484   C557.389465,510.259430 548.989075,558.034424 540.527283,605.798279   C540.268982,607.255798 540.082458,608.750671 541.209045,610.660034   C545.302124,609.735413 549.564575,609.616394 553.839966,609.632019   C575.971619,609.713013 595.776855,629.069946 596.316162,651.218018   C596.360779,653.050110 596.424683,654.888855 596.321655,656.715698   C596.168335,659.435425 597.253601,660.772156 600.076965,660.651550   C619.681702,659.813965 641.661194,678.423340 641.314880,704.006348   C641.279053,706.648865 641.889709,708.150024 644.799377,709.023254   C666.918091,715.661438 678.317200,731.652466 683.327087,753.336121   C689.741333,781.098389 685.314758,808.255615 679.026917,835.286133   C671.552429,867.417969 662.424500,899.082092 649.563721,929.512085   C641.197021,949.308411 630.724792,968.118103 620.846863,987.189087   C617.138489,994.348877 608.039429,996.370789 601.361816,992.323914   C594.985657,988.459961 593.513428,980.623535 597.915649,973.449829   C628.902039,922.956726 647.450806,867.924011 657.693665,809.852722   C660.570557,793.542664 661.891602,777.204895 658.655945,760.778870   C657.189880,753.335876 654.662598,746.389099 649.706360,740.438843   C642.536865,731.831299 634.710266,730.707397 625.710876,737.351562   C617.233215,743.610779 610.166748,751.449341 602.520569,758.621521   C590.364624,770.023926 577.975037,781.152649 565.376038,792.052368   C563.495728,793.679138 562.332092,795.299683 562.128052,797.867981   C561.694153,803.328308 560.971008,808.766418 560.329590,814.209290   C560.004089,816.972534 561.327271,818.418823 563.783386,819.515503   C571.237366,822.843872 578.430359,821.670227 585.512878,818.529785   C592.471497,815.444336 598.239380,810.629578 603.592041,805.342285   C609.280884,799.722839 614.731445,793.862854 620.393188,788.215332   C625.492554,783.128662 631.004395,781.889038 636.208252,784.409729   C642.113159,787.270020 644.827515,794.549561 640.679810,799.511353   C627.105774,815.749512 613.367004,832.014648 593.322388,840.853638   C583.137085,845.344910 572.385071,846.531921 561.559265,843.963013   C556.903320,842.858215 555.859924,844.612366 554.856995,848.485291   C549.910889,867.585693 543.475037,886.086853 532.182434,902.555847   C528.798279,907.491211 524.616028,910.366272 518.364319,909.492065   C509.918274,908.311157 505.209259,900.214844 508.796204,892.440796   C510.532593,888.677612 513.099365,885.305908 514.981079,881.600037   C525.618225,860.651001 533.239136,838.785767 534.716370,815.112305   C535.287048,805.967529 535.182617,806.523071 525.862122,805.204041   C509.028748,802.821594 497.615143,792.717285 489.986115,777.948242   C488.779236,775.611816 487.830566,773.141968 486.852173,770.936035   C484.153503,770.424438 482.669739,772.051453 480.914490,772.836182   C473.881378,775.980530 466.254059,774.043701 462.847626,768.178833   C459.194550,761.889343 460.574097,755.614624 467.234436,750.757324   C484.336182,738.285400 501.280243,725.621765 517.605591,711.579102  M521.632935,560.271057   C524.748413,541.930237 527.815491,523.581055 530.993347,505.251068   C534.085144,487.417328 537.515198,469.638855 540.346375,451.764801   C541.663147,443.451263 538.645752,436.268341 531.717285,431.202118   C525.226562,426.455994 518.178162,426.053497 510.951172,429.498444   C503.264679,433.162476 499.250336,439.766235 497.331909,447.656738   C492.856079,466.066162 488.563538,484.520996 484.317657,502.985260   C473.288147,550.950134 462.332428,598.931458 449.381836,646.428894   C445.758759,659.716858 441.677917,672.861755 436.691254,686.748413   C438.381653,685.736877 439.242065,685.303833 440.014099,684.748108   C461.793671,669.068237 482.698669,652.282959 503.425781,635.243774   C509.050995,630.619385 510.698853,625.149048 511.746979,618.577332   C514.806030,599.397827 518.251770,580.279968 521.632935,560.271057  M510.820740,759.610840   C516.745667,780.656677 532.701782,785.631226 549.226746,771.537170   C554.420105,767.107849 559.587524,762.638611 564.591858,757.998901   C579.731201,743.962585 595.019104,730.073914 609.790710,715.658081   C619.949402,705.744141 615.794556,689.940125 602.236206,685.957275   C593.750549,683.464417 586.373596,685.941895 579.830261,692.080688   C558.941284,711.678040 537.338501,730.473999 514.874451,748.251770   C511.229614,751.136353 509.143982,754.139526 510.820740,759.610840  z"/>
<path fill="currentColor" opacity="1.000000" stroke="currentColor" stroke-width="20" stroke-linecap="round" stroke-linejoin="round" d=" M402.063202,398.543121   C405.374329,390.387634 411.567780,385.836182 418.901031,382.504364   C427.430756,378.628937 436.676300,376.921417 445.444061,373.756439   C451.099091,371.715057 456.669769,369.493744 461.832092,366.405182   C473.539825,359.400635 477.363098,348.327332 472.615265,335.519165   C469.072052,325.960846 462.458771,318.374481 456.449402,310.406342   C441.801147,290.983490 427.488892,271.292786 412.368256,252.244232   C393.470154,228.437027 389.679932,201.444855 392.149048,172.162201   C394.100555,149.018326 397.625549,125.822151 394.653351,102.455025   C392.117065,82.515305 386.322968,63.463432 379.069763,44.801659   C377.863007,41.696808 376.649506,38.570808 377.167938,35.138687   C378.174866,28.472509 382.411560,24.268175 388.931152,23.387156   C395.389648,22.514387 401.170685,25.802355 403.972046,32.514717   C409.233063,45.120564 413.454681,58.100929 417.094025,71.262405   C423.602081,94.798454 424.920929,118.696213 422.524963,142.956360   C421.053741,157.852615 420.002594,172.815277 419.479675,187.773193   C418.969482,202.367523 422.333344,216.081467 430.650818,228.483566   C446.356140,251.901566 464.197235,273.713928 481.031311,296.282379   C489.004547,306.971680 497.310516,317.557800 501.098145,330.614624   C508.440399,355.925140 497.566345,379.534821 472.811890,392.811462   C462.594849,398.291229 451.450562,401.129913 440.424347,404.365601   C424.452423,409.052612 426.851837,409.231110 434.352570,420.109467   C450.403015,443.387512 442.154449,465.759399 424.189331,481.284546   C421.556885,483.559509 418.815308,485.708313 415.752533,488.220337   C417.623383,490.629120 419.545258,492.854614 421.194214,495.266754   C432.489685,511.790894 431.252686,530.478699 416.107544,546.258179   C405.831604,556.964600 401.591644,568.820862 402.254852,583.270203   C402.742493,593.894653 402.881714,604.593445 399.215485,614.896729   C388.760437,644.278992 367.667389,660.711914 337.221558,665.281738   C312.983795,668.919678 289.499054,663.678406 266.237396,657.749023   C242.546036,651.710205 219.016159,645.040405 195.365463,638.837830   C188.770432,637.108215 181.960205,636.254456 175.102188,636.689148   C159.850021,637.655762 149.783783,646.500549 141.933975,658.699463   C129.249741,678.411072 121.993568,700.380737 115.461365,722.619690   C112.417465,732.982666 109.921974,743.507446 107.220947,753.969971   C106.281006,757.610962 104.692924,760.840942 101.768021,763.290649   C97.675713,766.718201 93.069366,767.377502 88.218727,765.336792   C83.281334,763.259521 80.622261,759.315613 80.724258,753.988403   C80.914299,744.062927 84.158279,734.704712 86.790321,725.283386   C94.377518,698.125488 103.159943,671.398193 117.886215,647.085022   C128.032043,630.334229 141.116867,616.990784 160.930130,612.142578   C176.555374,608.319214 192.064636,610.295715 207.322556,614.167114   C231.185349,620.221863 254.909576,626.820740 278.741852,632.998657   C291.476257,636.299683 304.431824,638.696106 317.571655,639.439880   C341.808441,640.811768 366.249664,630.226624 373.160004,603.766846   C375.005219,596.701599 374.999390,589.536011 374.561157,582.427307   C373.331024,562.472412 379.436279,545.448669 393.494019,531.157166   C397.224274,527.364929 399.997925,522.792969 401.725372,517.598816   C403.351105,512.710571 401.725922,509.156494 397.967316,506.243774   C393.127960,502.493469 387.411011,501.442505 381.497559,501.399506   C376.463623,501.362885 371.501282,501.165009 366.837952,499.016113   C357.386383,494.660797 356.343842,484.166412 364.678864,477.788849   C370.337555,473.459045 377.171051,473.580017 383.711823,472.742462   C393.456238,471.494690 402.200684,468.140930 408.805206,460.682312   C416.878387,451.565125 416.858917,446.752441 412.423737,437.614014   C409.953156,432.523499 407.029877,427.654083 404.503632,422.588776   C400.742004,415.046478 399.228058,407.193451 402.063202,398.543121  z"/>
<path fill="currentColor" opacity="1.000000" stroke="currentColor" stroke-width="20" stroke-linecap="round" stroke-linejoin="round" d=" M887.556519,499.450653   C884.620422,543.640503 871.993164,584.502869 851.277771,622.977356   C836.816833,649.835449 819.093628,674.315369 797.811951,696.203430   C793.963745,700.161316 789.737366,703.357788 783.952942,703.053101   C778.374023,702.759338 774.060364,700.040527 771.813049,694.806213   C769.406738,689.201538 770.580444,683.994019 774.518066,679.474976   C782.947327,669.801025 791.346191,660.111511 799.133728,649.897949   C826.512512,613.989685 845.849060,574.386658 854.275330,529.807373   C858.653503,506.644958 860.075012,483.291046 857.832153,459.773254   C852.034180,398.979919 828.390625,345.870789 788.899963,299.566193   C784.359680,294.242462 779.972412,288.783508 775.644714,283.284546   C770.624023,276.904968 770.356262,270.214020 774.715393,264.997925   C779.135620,259.708710 787.053162,258.627625 793.811523,262.456512   C799.264709,265.545929 803.532959,270.012634 807.545227,274.708527   C846.651611,320.477173 872.750000,372.641541 883.988159,431.904510   C888.184937,454.035858 889.565918,476.458557 887.556519,499.450653  z"/>
<path fill="currentColor" opacity="1.000000" stroke="currentColor" stroke-width="20" stroke-linecap="round" stroke-linejoin="round" d=" M750.991455,407.927673   C741.126099,384.822296 727.378113,364.674103 711.078552,346.184906   C708.960571,343.782440 707.034973,341.285461 706.202881,338.147430   C704.901184,333.238159 706.056946,328.867859 709.592285,325.269684   C713.677673,321.111725 718.737732,320.882446 723.979248,322.331085   C727.955383,323.430023 730.975891,326.126801 733.804932,328.982544   C747.166382,342.470245 757.535156,358.151245 766.934204,374.516418   C780.407898,397.976135 789.821350,423.017517 794.010376,449.725647   C800.675110,492.217407 794.355591,532.902344 775.194092,571.512756   C763.845154,594.380859 749.165405,614.876221 731.466492,633.241211   C727.619812,637.232727 723.316284,639.922607 717.407104,639.498535   C708.300598,638.845154 702.513855,630.436646 705.369812,621.721069   C706.433350,618.475586 708.410339,615.824463 710.607422,613.296875   C725.399292,596.279602 739.114441,578.508118 749.255676,558.225403   C761.677673,533.381104 768.377380,507.083649 767.505310,479.303772   C766.731995,454.664490 761.366516,430.852692 750.991455,407.927673  z"/>
<path fill="currentColor" opacity="1.000000" stroke="currentColor" stroke-width="20" stroke-linecap="round" stroke-linejoin="round" d=" M664.320312,528.357300   C674.075195,512.143372 679.960815,495.087494 678.449768,476.364929   C676.718994,454.918152 668.522278,435.768280 655.403198,418.770538   C651.133728,413.238861 646.184326,408.221436 642.052734,402.596527   C635.309814,393.416321 640.194702,382.231476 651.293396,381.090759   C656.221313,380.584290 660.361877,382.866791 664.057190,385.870331   C673.366821,393.437103 680.226318,403.077515 686.575073,413.083405   C699.483704,433.427704 707.474731,455.528809 708.014954,479.731384   C708.599731,505.931458 699.654541,529.345032 684.942078,550.709412   C678.780518,559.656799 671.581421,567.735840 663.643799,575.148071   C659.106873,579.384705 653.757996,580.556396 647.918213,578.639526   C642.853394,576.976929 640.116516,573.137207 639.326843,567.950073   C638.594666,563.141113 640.515930,559.209961 643.609985,555.675293   C651.073242,547.149231 658.373352,538.494324 664.320312,528.357300  z"/>
</svg>